<svg width="254" height="222" viewBox="0 0 254 222" fill="none" xmlns="http://www.w3.org/2000/svg">
<path d="M22.0621 118.817C22.2582 118.893 22.4598 118.943 22.6615 119.005C23.0312 119.117 23.4009 119.212 23.7902 119.274C23.891 119.29 23.9863 119.332 24.0871 119.344C24.426 119.383 24.7593 119.402 25.0926 119.402C25.6527 119.402 26.2073 119.344 26.7507 119.234C27.0812 119.167 27.3892 119.049 27.7057 118.946C27.9102 118.879 28.1203 118.837 28.3191 118.755C28.6776 118.607 29.0081 118.408 29.3386 118.212C29.4758 118.131 29.6271 118.072 29.7615 117.982C30.2209 117.674 30.6494 117.324 31.0415 116.932L52.5292 95.4443C55.8118 92.1646 55.8118 86.8431 52.5292 83.5633C49.2495 80.2808 43.928 80.2808 40.6482 83.5633L36.4106 87.801C46.7568 47.3854 83.4837 17.4169 127.078 17.4169C163.469 17.4169 196.84 38.773 212.094 71.828C214.035 76.0404 219.031 77.8777 223.241 75.9368C227.456 73.993 229.293 68.9992 227.35 64.7868C209.36 25.8025 170 0.612061 127.078 0.612061C74.8684 0.612061 31.0387 37.0589 19.6198 85.8348L16.5473 80.785C14.1331 76.819 8.96558 75.5587 4.99965 77.9758C1.03652 80.3872 -0.223842 85.5575 2.19045 89.5235L17.9141 115.366C17.9449 115.417 17.9898 115.453 18.0206 115.504C18.281 115.91 18.5807 116.285 18.9056 116.641C18.9812 116.725 19.0429 116.82 19.1213 116.901C19.5358 117.319 19.9923 117.691 20.4881 118.016C20.6169 118.1 20.7598 118.159 20.8942 118.237C21.2667 118.456 21.6532 118.657 22.0621 118.817Z" fill="black"/>
<path d="M251.809 132.477L236.085 106.634C236.057 106.586 236.015 106.55 235.984 106.502C235.718 106.085 235.41 105.698 235.077 105.334C235.009 105.258 234.953 105.172 234.883 105.099C234.469 104.679 234.01 104.306 233.514 103.981C233.388 103.897 233.248 103.841 233.116 103.766C232.738 103.544 232.349 103.343 231.937 103.183C231.741 103.107 231.539 103.06 231.338 102.998C230.968 102.886 230.598 102.791 230.209 102.729C230.108 102.712 230.013 102.67 229.909 102.659C229.763 102.642 229.621 102.668 229.475 102.656C229.285 102.642 229.103 102.598 228.909 102.598C228.738 102.598 228.582 102.637 228.414 102.648C228.153 102.662 227.898 102.687 227.64 102.726C227.282 102.78 226.94 102.864 226.599 102.962C226.375 103.026 226.153 103.085 225.938 103.166C225.559 103.309 225.204 103.491 224.854 103.684C224.688 103.777 224.518 103.85 224.358 103.953C223.854 104.278 223.38 104.645 222.958 105.068L201.47 126.556C198.187 129.835 198.187 135.157 201.47 138.437C204.752 141.719 210.068 141.719 213.351 138.437L217.588 134.199C207.242 174.615 170.515 204.583 126.921 204.583C89.225 204.583 55.3773 182.146 40.6899 147.424C38.8806 143.15 33.954 141.142 29.6771 142.96C25.4031 144.769 23.4033 149.696 25.2127 153.973C42.5356 194.926 82.4582 221.388 126.921 221.388C179.131 221.388 222.96 184.941 234.379 136.162L237.452 141.212C239.031 143.811 241.801 145.245 244.636 145.245C246.123 145.245 247.63 144.85 248.997 144.021C252.963 141.61 254.223 136.442 251.809 132.477Z" fill="black"/>
</svg>
